<svg width="980" height="914" viewBox="0 0 980 914" fill="none" xmlns="http://www.w3.org/2000/svg">
<path d="M28.1298 3.68817C17.7998 8.75817 10.3898 16.1582 5.12975 26.6882L0.839753 35.6582L0.259753 386.288C-0.330247 776.098 -1.11025 750.178 12.7298 765.568C16.4298 769.658 23.6398 775.118 28.7098 777.648L37.8698 782.128L199.25 782.708L360.44 783.288V831.818V880.348L332.18 880.928C306.06 881.508 303.72 881.898 299.63 885.798C293.78 891.648 293.78 902.558 299.63 908.408L304.11 912.698L486.73 913.278C587.11 913.478 671.31 913.278 673.84 912.698C680.66 910.948 685.92 904.508 685.92 897.888C685.92 883.468 679.1 880.538 645.77 880.538H621.6V831.808V783.278L782.98 782.698L944.17 782.118L954.11 776.858C965.8 770.618 972.82 763.018 977.11 751.518C980.03 743.918 980.23 711.558 979.84 387.238L979.26 31.3382L973.41 21.7882C969.71 15.9382 963.86 10.0982 958.01 6.38817L948.46 0.53817L492.19 0.148229C40.9897 -0.211771 35.9198 -0.21183 28.1298 3.68817ZM944.18 35.6482L949.05 40.3282V329.958V619.388H491.03H32.9998V329.958V40.3282L37.8698 35.6482L42.5498 30.7782H491.03H939.5L944.18 35.6482ZM949.05 695.408V740.428L944.18 745.108L939.5 749.978H491.42H43.3298L38.0698 745.888L32.9998 741.988V696.188V650.578H491.03H949.06V695.408H949.05ZM588.48 831.838V880.568H490.05H391.62V831.838V783.108H490.05H588.48V831.838Z" fill="#2A2E35"/>
<path d="M479.155 689.849C468.435 698.229 475.645 716.939 489.675 716.939C493.375 716.939 497.475 715.189 500.395 712.069C514.635 698.029 494.945 677.369 479.155 689.849Z" fill="#2A2E35"/>
<path d="M546.998 252.163C554.899 256.119 558.098 265.731 554.142 273.633L447.777 486.086C443.821 493.988 434.209 497.186 426.307 493.23V493.23C418.405 489.274 415.207 479.662 419.163 471.76L525.528 259.307C529.484 251.405 539.096 248.207 546.998 252.163V252.163Z" fill="#2A2E35"/>
<path d="M248.798 371.026C244.092 363.547 246.34 353.669 253.819 348.963L381.655 268.521C389.134 263.815 399.013 266.063 403.719 273.542V273.542C408.425 281.021 406.177 290.899 398.698 295.605L270.861 376.047C263.382 380.753 253.504 378.505 248.798 371.026V371.026Z" fill="#2A2E35"/>
<path d="M250.5 353.992C256.298 347.325 266.404 346.62 273.072 352.419L387.042 451.535C393.709 457.334 394.414 467.44 388.615 474.108V474.108C382.816 480.776 372.71 481.48 366.042 475.681L252.073 376.565C245.405 370.766 244.701 360.66 250.5 353.992V353.992Z" fill="#2A2E35"/>
<path d="M728.736 378.39C733.443 385.869 731.195 395.747 723.716 400.453L595.879 480.894C588.4 485.601 578.522 483.353 573.816 475.874V475.874C569.11 468.395 571.357 458.516 578.836 453.81L706.673 373.369C714.152 368.663 724.03 370.911 728.736 378.39V378.39Z" fill="#2A2E35"/>
<path d="M727.035 395.423C721.236 402.091 711.13 402.795 704.462 396.996L590.493 297.88C583.825 292.082 583.121 281.976 588.92 275.308V275.308C594.718 268.64 604.824 267.936 611.492 273.734L725.462 372.85C732.129 378.649 732.834 388.755 727.035 395.423V395.423Z" fill="#2A2E35"/>
</svg>
