<svg width="483" height="950" viewBox="0 0 483 950" fill="none" xmlns="http://www.w3.org/2000/svg">
<path d="M297.441 343.24L308.008 327.389C309.668 324.898 310.272 321.879 309.706 318.935C309.102 315.991 307.404 313.462 304.913 311.802C299.931 308.443 292.648 309.953 289.326 314.897L276.608 333.993C253.813 326.634 227.923 326.634 205.128 333.993L192.409 314.934C189.088 309.953 181.918 308.443 176.823 311.84C171.69 315.274 170.294 322.256 173.728 327.389L184.295 343.277C158.141 358.675 141.724 385.32 141.724 413.286C141.724 417.663 145.272 421.249 149.687 421.249H332.728C337.106 421.249 340.691 417.701 340.691 413.286C340.691 385.433 323.972 358.789 297.441 343.24ZM158.217 405.322C161.274 383.697 176.672 363.883 199.203 353.392C200.184 352.939 201.052 352.297 201.731 351.505C202.75 351.58 203.807 351.354 204.826 350.976C227.47 342.183 254.266 342.183 276.91 350.976C277.929 351.354 278.986 351.58 280.005 351.505C280.722 352.297 281.59 352.939 282.533 353.392C305.366 364.034 321.028 383.848 324.161 405.322H158.217ZM332.464 429.174H149.272C144.894 429.174 141.309 432.722 141.309 437.137V584.626C141.309 600.44 154.178 613.309 169.992 613.309H176.219V652.257C176.219 667.466 188.598 679.845 203.807 679.845C219.016 679.845 231.395 667.466 231.395 652.257V613.309H250.378V652.257C250.378 667.466 262.757 679.845 277.967 679.845C293.176 679.845 305.555 667.466 305.555 652.257V613.309H311.782C327.595 613.309 340.464 600.44 340.464 584.626V437.137C340.427 432.76 336.879 429.174 332.464 429.174ZM324.5 584.626C324.5 591.684 318.764 597.383 311.744 597.383H296.799C294.308 597.383 291.93 598.553 290.421 600.553C288.911 602.553 288.421 605.157 289.138 607.573C289.44 608.629 289.591 609.724 289.591 610.78V652.219C289.591 658.673 284.345 663.881 277.929 663.881C271.475 663.881 266.267 658.635 266.267 652.219V610.818C266.267 609.761 266.418 608.667 266.72 607.61C267.437 605.195 266.946 602.591 265.437 600.591C263.927 598.59 261.587 597.42 259.059 597.42H222.602C220.111 597.42 217.733 598.59 216.223 600.591C214.714 602.591 214.223 605.157 214.94 607.573C215.242 608.667 215.431 609.761 215.431 610.818V652.257C215.431 658.711 210.185 663.919 203.731 663.919C197.278 663.919 192.07 658.673 192.07 652.257V610.818C192.07 609.761 192.221 608.667 192.523 607.61C193.24 605.195 192.749 602.591 191.239 600.591C189.73 598.59 187.39 597.383 184.861 597.383H169.916C162.896 597.383 157.16 591.646 157.16 584.626V445.101H324.463V584.626H324.5ZM108.588 432.722C93.3788 432.722 81 445.101 81 460.31V544.282C81 559.491 93.3788 571.87 108.588 571.87C123.797 571.87 136.176 559.491 136.176 544.282V460.31C136.176 445.101 123.797 432.722 108.588 432.722ZM120.25 544.282C120.25 550.736 115.004 555.944 108.588 555.944C102.135 555.944 96.9264 550.698 96.9264 544.282V460.31C96.9264 453.856 102.172 448.648 108.588 448.648C115.042 448.648 120.25 453.894 120.25 460.31V544.282ZM373.148 432.722C357.938 432.722 345.559 445.101 345.559 460.31V544.282C345.559 559.491 357.938 571.87 373.148 571.87C388.357 571.87 400.736 559.491 400.736 544.282V460.31C400.736 445.101 388.357 432.722 373.148 432.722ZM384.847 544.282C384.847 550.736 379.601 555.944 373.185 555.944C366.732 555.944 361.524 550.698 361.524 544.282V460.31C361.524 453.856 366.769 448.648 373.185 448.648C379.601 448.648 384.847 453.894 384.847 460.31V544.282ZM278.835 369.846C273.626 369.846 269.4 374.073 269.4 379.282C269.4 384.49 273.626 388.717 278.835 388.717C284.043 388.717 288.27 384.49 288.27 379.282C288.307 374.073 284.08 369.846 278.835 369.846ZM207.204 369.846C201.995 369.846 197.768 374.073 197.768 379.282C197.768 384.49 201.995 388.717 207.204 388.717C212.412 388.717 216.639 384.49 216.639 379.282C216.676 374.073 212.449 369.846 207.204 369.846Z" fill="#2A2E35"/>
<path d="M400.445 0L84.251 0.00190603C9.82714 0 0 56.4292 0 94.4756L0.988899 860.726C0.988899 898.773 48.7512 950 85.2399 950H396.667C433.144 950 482.339 892.559 482.339 854.514V92.8301C482.33 54.7837 471.735 0 400.445 0ZM84.2505 41.0986H396.667C419.077 41.0986 437.44 58.7018 440.192 81.3187H40.714C43.4526 58.6998 61.8199 41.0986 84.2505 41.0986ZM440.743 860.726C440.743 886.078 420.962 906.704 396.648 906.704H84.2505C59.9364 906.704 40.1569 886.078 40.1569 860.726V854.514H440.762V860.726H440.743ZM440.743 843.001H40.1569V92.8301H440.762V843.001H440.743Z" fill="#2A2E35"/>
<path d="M102.618 73.906C108.323 73.906 112.948 69.0835 112.948 63.1346C112.948 57.1858 108.323 52.3633 102.618 52.3633C96.9124 52.3633 92.2874 57.1858 92.2874 63.1346C92.2874 69.0835 96.9124 73.906 102.618 73.906Z" fill="#2A2E35"/>
<path d="M282.377 52.3423H199.108C194.028 52.3423 191.409 56.3517 193.234 61.274L193.501 61.9695C195.339 66.8918 200.936 70.8954 206.011 70.8954H277.79C282.873 70.8954 287.998 66.7384 289.285 61.614C290.531 56.5051 287.457 52.3423 282.377 52.3423Z" fill="#2A2E35"/>
</svg>
