<svg width="927" height="908" viewBox="0 0 927 908" fill="none" xmlns="http://www.w3.org/2000/svg">
<path d="M16 -6.99381e-07C24.8366 -3.13124e-07 32 7.16343 32 16L32 892C32 900.837 24.8365 908 16 908V908C7.16344 908 6.77504e-07 900.837 1.06376e-06 892L3.93549e-05 16C3.97412e-05 7.16347 7.16348 -1.08564e-06 16 -6.99381e-07V-6.99381e-07Z" fill="#12181B"/>
<path d="M272.094 458.443C278.889 464.093 279.818 474.181 274.168 480.975L88.8351 703.886C83.1858 710.681 73.0978 711.61 66.303 705.96V705.96C59.5082 700.311 58.5796 690.223 64.229 683.428L249.562 460.517C255.212 453.722 265.3 452.794 272.094 458.443V458.443Z" fill="#12181B"/>
<path d="M912.321 263.027C919.966 267.46 922.569 277.25 918.136 284.894L772.709 535.67C768.276 543.314 758.485 545.918 750.841 541.485V541.485C743.197 537.052 740.594 527.261 745.027 519.617L890.454 268.841C894.887 261.197 904.677 258.594 912.321 263.027V263.027Z" fill="#12181B"/>
<path d="M570.884 419.229C577.679 424.878 578.607 434.966 572.958 441.761L434.582 608.194C428.932 614.989 418.844 615.917 412.05 610.268V610.268C405.255 604.618 404.326 594.53 409.976 587.736L548.352 421.303C554.001 414.508 564.089 413.58 570.884 419.229V419.229Z" fill="#12181B"/>
<path d="M769.859 535.546C765.865 543.429 756.238 546.582 748.355 542.588L555.273 444.777C547.39 440.783 544.237 431.156 548.231 423.273V423.273C552.224 415.39 561.851 412.237 569.734 416.231L762.816 514.042C770.699 518.036 773.852 527.663 769.859 535.546V535.546Z" fill="#12181B"/>
<path d="M426.369 607.794C420.719 614.589 410.631 615.517 403.837 609.868L251.534 483.241C244.74 477.591 243.811 467.503 249.46 460.708V460.708C255.11 453.914 265.198 452.985 271.993 458.634L424.295 585.262C431.09 590.911 432.018 600.999 426.369 607.794V607.794Z" fill="#12181B"/>
<path d="M909 892C909 900.837 901.837 908 893 908L17 908C8.16347 908 1 900.836 1 892V892C1 883.163 8.16344 876 17 876L893 876C901.837 876 909 883.163 909 892V892Z" fill="#12181B"/>
</svg>
