<svg width="570" height="561" viewBox="0 0 570 561" fill="none" xmlns="http://www.w3.org/2000/svg">
<path fill-rule="evenodd" clip-rule="evenodd" d="M265.915 254.117C287.891 244.013 314.9 233.847 337.819 247.088C352.855 253.964 367.383 262.313 383.482 266.536C406.357 264.731 430.251 264.742 452.109 272.388C482.194 286.337 497.97 322.96 492.265 354.781C483.204 386.024 459.421 413.364 427.881 423.063C408.299 430.208 384.636 430.543 369.969 447.345C356.04 462.296 343.893 479.883 324.786 488.791C307.427 498.577 287.098 499.557 267.695 499.91C244.489 499.365 222.269 486.353 211.278 465.77C193.14 435.869 200.509 397.428 217.81 368.914C225.406 357.094 233.265 344.494 231.299 329.721C230.448 311.816 226.6 291.018 240.106 276.506C247.264 267.556 256.268 260.231 265.915 254.117Z" fill="white"/>
<path fill-rule="evenodd" clip-rule="evenodd" d="M70.8136 333.397C65.8216 315.344 69.5698 293.547 84.7884 281.42C95.6496 272.719 109.671 268.28 123.439 267.524C150.043 268.598 174.056 283.221 193.26 300.724C202.604 308.995 211.373 318.583 215.22 330.718C220.426 344.644 217.819 360.721 209.14 372.673C199.559 390.973 178.762 401.958 158.294 400.806C146.259 400.351 134.145 397.568 123.873 391.086C100.952 378.044 79.3273 359.13 70.8136 333.397Z" fill="white"/>
<path fill-rule="evenodd" clip-rule="evenodd" d="M143.928 133.344C143.928 133.344 169.183 118.167 202.664 141.889C202.664 141.889 224.954 156.924 241.156 190.997C241.156 190.997 260.292 223.577 249.113 248.427C249.113 248.427 237.471 288.048 188.047 274.393C188.047 274.393 153.463 264.709 130.05 235.503C130.05 235.503 105.55 205.481 113.865 173.505C113.865 173.505 121.265 146.942 143.928 133.344Z" fill="white"/>
<path fill-rule="evenodd" clip-rule="evenodd" d="M270.577 62.8756C270.577 62.8756 307.108 53.1651 325.308 90.5887C325.308 90.5887 344.38 117.936 343.325 154.064C343.325 154.064 345.733 196.363 325.191 213.61C325.191 213.61 304.904 236.615 263.4 209.264C263.4 209.264 223.919 173.583 226.106 132.033C226.106 132.033 223.017 74.2583 270.577 62.8756Z" fill="white"/>
<path fill-rule="evenodd" clip-rule="evenodd" d="M392.497 108.203C409.731 103.792 428.552 111.595 438.945 125.746C448.525 138.316 453.569 153.745 456.705 169.063C460.544 191.913 457.077 216.046 446.721 236.78C438.265 251.414 420.68 258.104 404.36 257.416C398.231 258.034 392.717 255.489 387.816 252.043C370.733 241.383 358.254 223.34 355.633 203.243C352.489 184.729 350.525 165.075 356.644 146.959C360.878 132.557 368.986 117.961 383.089 111.263C386.073 109.836 389.247 108.812 392.497 108.203Z" fill="white"/>
</svg>
